<svg width="40" height="40" viewBox="0 0 40 40" fill="none" xmlns="http://www.w3.org/2000/svg">
<path d="M30.364 13.364C32.3166 15.3166 32.3166 18.4824 30.364 20.435L21.8787 28.9203C19.145 31.654 14.7129 31.654 11.9792 28.9203C9.24551 26.1866 9.24551 21.7545 11.9792 19.0208L17.636 13.364L19.0503 14.7782L13.3934 20.435C11.4408 22.3877 11.4408 25.5535 13.3934 27.5061C15.346 29.4587 18.5118 29.4587 20.4645 27.5061L28.9497 19.0208C30.1213 17.8492 30.1213 15.9497 28.9497 14.7782C27.7782 13.6066 25.8787 13.6066 24.7071 14.7782L16.2218 23.2635C15.8313 23.654 15.8313 24.2871 16.2218 24.6777C16.6123 25.0682 17.2455 25.0682 17.636 24.6777L25.4142 16.8995L26.8284 18.3137L19.0503 26.0919C17.8787 27.2635 15.9792 27.2635 14.8076 26.0919C13.636 24.9203 13.636 23.0208 14.8076 21.8492L23.2929 13.364C25.2455 11.4113 28.4113 11.4113 30.364 13.364Z" fill="#999999"/>
</svg>
