<svg width="201" height="81" viewBox="0 0 201 81" fill="none" xmlns="http://www.w3.org/2000/svg">
<path d="M51.2251 30.1836H48.5318V23.8985C48.5318 14.9109 42.9493 7.23194 35.0635 4.12665V17.9136C35.0635 18.5748 34.5279 19.1104 33.8662 19.1104C33.2056 19.1104 32.6695 18.5748 32.6695 17.9136V0.255005H21.8954V17.9136C21.8954 18.5748 21.3588 19.1104 20.6976 19.1104C20.0369 19.1104 19.5008 18.5748 19.5008 17.9136V4.12665C11.6161 7.23194 6.03302 14.9109 6.03302 23.8985V30.1836H3.33925C2.1823 30.1836 1.24438 31.1215 1.24438 32.279C1.24438 33.4364 2.1823 34.3744 3.33925 34.3744H51.2251C52.3821 34.3744 53.32 33.4364 53.32 32.279C53.32 31.1215 52.3821 30.1836 51.2251 30.1836Z" fill="#29ABE2"/>
<path d="M6.5783 41.9405H4.28074V49.5832H2.39827V41.9405H0.140015V40.395H6.5783V41.9405Z" fill="white"/>
<path d="M10.7216 46.3518V49.5832H8.84625V40.394H12.0108C12.9298 40.394 13.663 40.6763 14.2093 41.24C14.7561 41.8037 15.0293 42.5358 15.0293 43.4365C15.0293 44.3366 14.7587 45.0473 14.219 45.5696C13.6783 46.0909 12.9298 46.3518 11.9725 46.3518H10.7216ZM10.7216 44.8058H12.0108C12.3682 44.8058 12.6449 44.6899 12.8404 44.4586C13.0365 44.2273 13.134 43.8909 13.134 43.4487C13.134 42.9902 13.0339 42.6247 12.8343 42.3535C12.6342 42.0824 12.3661 41.9446 12.0302 41.94H10.7216V44.8058Z" fill="white"/>
<path d="M20.1293 44.4775L21.3802 40.3945H23.3965L20.8502 47.7784C20.5608 48.5105 20.2498 49.0129 19.9164 49.2866C19.5815 49.5597 19.1812 49.7032 18.713 49.716H18.5088L18.062 49.6904L18.0304 48.1506C18.0722 48.1674 18.2111 48.1761 18.4449 48.1761C18.6834 48.1761 18.8631 48.123 18.9841 48.0178C19.1051 47.9126 19.2108 47.6768 19.3002 47.3107L19.3895 46.9763L16.735 40.394H18.7447L20.1293 44.4775Z" fill="white"/>
<path d="M32.4203 51.8425H30.6972V49.5832H26.3006V51.8359H24.5269L24.4248 48.0428H25.0436C25.3157 47.7952 25.5307 47.3949 25.6885 46.8435C25.8457 46.2931 25.956 45.5712 26.0198 44.6792L26.2817 40.3945H31.6228V48.0428H32.5858L32.4203 51.8425ZM27.0604 48.0433H29.7531V41.9405H28.0687L27.9151 44.4714C27.8089 45.9898 27.5229 47.181 27.0604 48.0433Z" fill="white"/>
<path d="M41.2271 45.8157C41.2271 47.0482 40.932 48.0056 40.3428 48.6872C39.7536 49.3683 38.9357 49.7093 37.8895 49.7093C36.847 49.7093 36.0285 49.3718 35.4327 48.6969C34.8373 48.0214 34.5356 47.0758 34.5269 45.8596V44.2886C34.5269 43.026 34.8225 42.0411 35.4138 41.3319C36.005 40.6222 36.826 40.2684 37.8768 40.2684C38.9102 40.2684 39.725 40.6166 40.3204 41.313C40.9162 42.0089 41.2179 42.9861 41.2271 44.2437V45.8157ZM39.3447 44.2758C39.3447 43.4472 39.2252 42.8309 38.9873 42.4266C38.7488 42.0232 38.3787 41.8205 37.8768 41.8205C37.3795 41.8205 37.0114 42.0156 36.7734 42.4046C36.5345 42.7942 36.4114 43.3864 36.4028 44.1809V45.8157C36.4028 46.6188 36.5243 47.2111 36.7668 47.592C37.0088 47.9729 37.3836 48.1633 37.8895 48.1633C38.3787 48.1633 38.7422 47.9775 38.9811 47.6048C39.2185 47.2325 39.3401 46.6551 39.3447 45.8719V44.2758Z" fill="white"/>
<path d="M43.7499 49.5832V40.3945H46.6213C47.5904 40.3945 48.3277 40.6084 48.8316 41.0353C49.3355 41.4621 49.5877 42.0881 49.5877 42.9126C49.5877 43.3798 49.4836 43.7811 49.2748 44.1181C49.067 44.4545 48.7815 44.7006 48.4206 44.8558C48.8372 44.9738 49.1583 45.2107 49.3835 45.5666C49.6097 45.9219 49.722 46.3605 49.722 46.8823C49.722 47.7738 49.4744 48.4472 48.9786 48.9016C48.4834 49.356 47.765 49.5832 46.8256 49.5832H43.7499V49.5832ZM45.6252 44.237H46.6014C47.3377 44.237 47.7053 43.8613 47.7053 43.1082C47.7053 42.6915 47.621 42.3929 47.4505 42.2116C47.28 42.0309 47.0032 41.9405 46.6213 41.9405H45.6252V44.237V44.237ZM45.6252 45.5885V48.0433H46.8256C47.161 48.0433 47.4158 47.9407 47.5904 47.735C47.765 47.5287 47.8523 47.2356 47.8523 46.8573C47.8523 46.0327 47.5506 45.61 46.9466 45.589H45.6252V45.5885Z" fill="white"/>
<path d="M54.1195 43.6948H55.2295C56.1695 43.6948 56.9185 43.9593 57.4755 44.4872C58.0325 45.0152 58.3113 45.7213 58.3113 46.6046C58.3113 47.4838 58.0392 48.1955 57.4949 48.7408C56.9501 49.2856 56.2292 49.5664 55.3316 49.5832H52.2371V40.3945H54.1195V43.6948V43.6948ZM54.1195 45.2352V48.0433H55.255C55.6211 48.0433 55.9091 47.908 56.1194 47.6364C56.3303 47.3653 56.4355 47.0171 56.4355 46.5918C56.4355 46.1925 56.3329 45.8673 56.1256 45.6171C55.9193 45.3669 55.6339 45.2393 55.2678 45.2352H54.1195ZM60.6727 49.5832H58.7969V40.3945H60.6727V49.5832Z" fill="white"/>
<path d="M68.1924 45.6074H65.2694V48.0433H68.728V49.5832H63.394V40.3945H68.7152V41.9405H65.2694V44.1114H68.1924V45.6074Z" fill="white"/>
<path d="M77.0329 46.3518V49.5832H75.1576V40.394H78.3216C79.2411 40.394 79.9743 40.6763 80.5206 41.24C81.0674 41.8037 81.3406 42.5358 81.3406 43.4365C81.3406 44.3366 81.07 45.0473 80.5303 45.5696C79.9896 46.0909 79.2411 46.3518 78.2838 46.3518H77.0329ZM77.0329 44.8058H78.3216C78.6795 44.8058 78.9562 44.6899 79.1518 44.4586C79.3478 44.2273 79.4454 43.8909 79.4454 43.4487C79.4454 42.9902 79.3453 42.6247 79.1457 42.3535C78.9455 42.0824 78.6775 41.9446 78.3415 41.94H77.0329V44.8058V44.8058Z" fill="white"/>
<path d="M88.5003 45.6074H85.5773V48.0433H89.0359V49.5832H83.7025V40.3945H89.0231V41.9405H85.5773V44.1114H88.5003V45.6074Z" fill="white"/>
<path d="M97.5103 46.5223C97.4639 47.57 97.1662 48.3624 96.6169 48.9016C96.0685 49.4403 95.2945 49.7093 94.2948 49.7093C93.2435 49.7093 92.4383 49.3678 91.8793 48.6836C91.3197 47.9999 91.0404 47.0247 91.0404 45.7585V44.213C91.0404 42.9504 91.3299 41.9778 91.9084 41.2941C92.4863 40.61 93.29 40.2679 94.3198 40.2679C95.3323 40.2679 96.1012 40.5477 96.6271 41.1078C97.1519 41.6678 97.4506 42.471 97.5231 43.5187H95.6406C95.6238 42.8708 95.5227 42.4235 95.3379 42.1774C95.1525 41.9318 94.8135 41.8083 94.3198 41.8083C93.8179 41.8083 93.4625 41.9818 93.2542 42.329C93.0459 42.6767 92.9356 43.2476 92.9229 44.042V45.7774C92.9229 46.6908 93.0255 47.3178 93.2318 47.6584C93.438 47.9994 93.7929 48.17 94.2948 48.17C94.788 48.17 95.128 48.051 95.3154 47.8136C95.5028 47.5752 95.609 47.1452 95.6345 46.5229H97.5103V46.5223Z" fill="white"/>
<path d="M102.555 44.4775L103.805 40.3945H105.821L103.275 47.7784C102.986 48.5105 102.675 49.0129 102.341 49.2866C102.007 49.5597 101.607 49.7032 101.138 49.716H100.935L100.487 49.6904L100.455 48.1506C100.498 48.1674 100.637 48.1761 100.87 48.1761C101.109 48.1761 101.289 48.123 101.41 48.0178C101.531 47.9126 101.636 47.6768 101.726 47.3107L101.815 46.9763L99.1605 40.394H101.171L102.555 44.4775Z" fill="white"/>
<path d="M109.921 46.3518V49.5832H108.045V40.394H111.209C112.129 40.394 112.862 40.6763 113.408 41.24C113.955 41.8037 114.228 42.5358 114.228 43.4365C114.228 44.3366 113.958 45.0473 113.418 45.5696C112.877 46.0909 112.129 46.3518 111.172 46.3518H109.921ZM109.921 44.8058H111.209C111.567 44.8058 111.844 44.6899 112.04 44.4586C112.235 44.2273 112.333 43.8909 112.333 43.4487C112.333 42.9902 112.233 42.6247 112.033 42.3535C111.833 42.0824 111.565 41.9446 111.229 41.94H109.92V44.8058H109.921Z" fill="white"/>
<path d="M122.967 46.5223C122.92 47.57 122.622 48.3624 122.073 48.9016C121.525 49.4403 120.75 49.7093 119.751 49.7093C118.7 49.7093 117.894 49.3678 117.336 48.6836C116.776 47.9999 116.496 47.0247 116.496 45.7585V44.213C116.496 42.9504 116.786 41.9778 117.364 41.2941C117.942 40.61 118.746 40.2679 119.776 40.2679C120.788 40.2679 121.557 40.5477 122.084 41.1078C122.608 41.6678 122.907 42.471 122.98 43.5187H121.097C121.08 42.8708 120.98 42.4235 120.794 42.1774C120.609 41.9318 120.27 41.8083 119.776 41.8083C119.274 41.8083 118.919 41.9818 118.71 42.329C118.502 42.6767 118.392 43.2476 118.379 44.042V45.7774C118.379 46.6908 118.482 47.3178 118.688 47.6584C118.894 47.9994 119.249 48.17 119.751 48.17C120.244 48.17 120.585 48.051 120.771 47.8136C120.959 47.5752 121.065 47.1452 121.091 46.5229H122.967V46.5223Z" fill="white"/>
<path d="M127.199 43.6948H128.309C129.249 43.6948 129.998 43.9593 130.556 44.4872C131.112 45.0152 131.391 45.7213 131.391 46.6046C131.391 47.4838 131.119 48.1955 130.575 48.7408C130.03 49.2856 129.309 49.5664 128.412 49.5832H125.318V40.3945H127.199V43.6948V43.6948ZM127.199 45.2352V48.0433H128.335C128.701 48.0433 128.989 47.908 129.199 47.6364C129.411 47.3653 129.515 47.0171 129.515 46.5918C129.515 46.1925 129.413 45.8673 129.206 45.6171C129 45.3669 128.714 45.2393 128.348 45.2352H127.199ZM133.753 49.5832H131.876V40.3945H133.753V49.5832Z" fill="white"/>
<path d="M6.85911 60.9337C6.81264 61.9814 6.51498 62.7743 5.96561 63.313C5.41726 63.8516 4.64323 64.1212 3.64353 64.1212C2.59227 64.1212 1.7871 63.7791 1.22803 63.095C0.668443 62.4123 0.38916 61.4361 0.38916 60.1699V58.6239C0.38916 57.3617 0.678654 56.3891 1.25713 55.705C1.83509 55.0213 2.63873 54.6792 3.66855 54.6792C4.68101 54.6792 5.44993 54.959 5.97582 55.5186C6.50068 56.0787 6.79937 56.8823 6.87187 57.9295H4.9894C4.97255 57.2816 4.87145 56.8343 4.68663 56.5887C4.50129 56.3427 4.16227 56.2191 3.66855 56.2191C3.16666 56.2191 2.81131 56.3927 2.60299 56.7399C2.39468 57.0876 2.2844 57.6584 2.27163 58.4534V60.1888C2.27163 61.1017 2.37426 61.7287 2.58053 62.0692C2.7868 62.4103 3.14164 62.5808 3.64353 62.5808C4.13674 62.5808 4.47678 62.4623 4.66416 62.2244C4.85154 61.9865 4.95774 61.5561 4.98327 60.9337H6.85911V60.9337Z" fill="white"/>
<path d="M15.259 56.3519H12.962V63.9946H11.0795V56.3519H8.82123V54.8058H15.259V56.3519Z" fill="white"/>
<path d="M19.4161 60.7637V63.9946H17.5408V54.8058H20.7048C21.6243 54.8058 22.357 55.0882 22.9033 55.6519C23.4501 56.2155 23.7238 56.9472 23.7238 57.8478C23.7238 58.7485 23.4532 59.4592 22.9135 59.981C22.3728 60.5028 21.6243 60.7637 20.667 60.7637H19.4161V60.7637ZM19.4161 59.2172H20.7048C21.0627 59.2172 21.3394 59.1008 21.535 58.87C21.7305 58.6387 21.8285 58.3017 21.8285 57.8596C21.8285 57.4011 21.7285 57.0365 21.5288 56.7644C21.3287 56.4933 21.0606 56.3554 20.7247 56.3508H19.4161V59.2172Z" fill="white"/>
<path d="M32.6909 60.2271C32.6909 61.4596 32.3958 62.4169 31.8066 63.0985C31.2174 63.7796 30.3995 64.1212 29.3533 64.1212C28.3107 64.1212 27.4918 63.7832 26.8964 63.1082C26.3006 62.4327 25.9989 61.4872 25.9902 60.271V58.7C25.9902 57.4373 26.2863 56.4524 26.8775 55.7432C27.4688 55.0341 28.2893 54.6797 29.3405 54.6797C30.3739 54.6797 31.1883 55.0285 31.7841 55.7244C32.3794 56.4203 32.6812 57.3975 32.6909 58.655V60.2271V60.2271ZM30.8084 58.6867C30.8084 57.858 30.689 57.2418 30.4505 56.8379C30.2121 56.4341 29.8424 56.2319 29.3405 56.2319C28.8427 56.2319 28.4746 56.4264 28.2367 56.816C27.9982 57.205 27.8747 57.7973 27.8665 58.5922V60.2266C27.8665 61.0302 27.9875 61.622 28.2306 62.0028C28.4726 62.3837 28.8473 62.5737 29.3533 62.5737C29.8424 62.5737 30.2054 62.3878 30.4444 62.0156C30.6823 61.6429 30.8033 61.0654 30.8084 60.2827V58.6867V58.6867Z" fill="white"/>
<path d="M39.8144 54.8058H41.6902V63.9946H39.8144V57.9106L37.0772 63.9946H35.1953V54.8058H37.0772V60.8954L39.8144 54.8058Z" fill="white"/>
<path d="M50.4031 56.3519H48.1061V63.9946H46.2236V56.3519H43.9653V54.8058H50.4031V56.3519Z" fill="white"/>
<path d="M57.4822 60.0188H54.5591V62.4542H58.0177V63.9946H52.6843V54.8058H58.005V56.3519H54.5591V58.5233H57.4822V60.0188Z" fill="white"/>
<path d="M67.0094 54.8058V63.9946H65.1269V56.3519H63.4043L63.2772 59.6088C63.2256 60.6815 63.103 61.5321 62.9095 62.1611C62.716 62.7896 62.4337 63.2522 62.0615 63.5463C61.6888 63.8409 61.1879 63.9905 60.5584 63.9946H60.0994V62.4547L60.3164 62.4358C60.7075 62.3898 60.9893 62.1361 61.1614 61.6756C61.3339 61.215 61.4411 60.3996 61.484 59.2299L61.605 54.8058H67.0094V54.8058Z" fill="white"/>
<path d="M71.6132 58.1067H72.7237C73.6636 58.1067 74.4126 58.3711 74.9697 58.8991C75.5272 59.427 75.806 60.1326 75.806 61.0159C75.806 61.8951 75.5333 62.6068 74.9891 63.1521C74.4443 63.6969 73.7234 63.9777 72.8258 63.9946H69.7307V54.8058H71.6132V58.1067V58.1067ZM71.6132 59.646V62.4547H72.7492C73.1153 62.4547 73.4032 62.3189 73.6136 62.0478C73.8245 61.7762 73.9296 61.4279 73.9296 61.0026C73.9296 60.6034 73.826 60.2781 73.6202 60.0279C73.414 59.7778 73.128 59.6506 72.762 59.646H71.6132V59.646Z" fill="white"/>
<path d="M84.6067 63.9946H82.737V60.0632H79.9677V63.9946H78.0923V54.8058H79.9677V58.5233H82.737V54.8058H84.6067V63.9946Z" fill="white"/>
<path d="M93.8302 60.2271C93.8302 61.4596 93.535 62.4169 92.9458 63.0985C92.3566 63.7796 91.5387 64.1212 90.4926 64.1212C89.45 64.1212 88.631 63.7832 88.0357 63.1082C87.4404 62.4327 87.1381 61.4872 87.1299 60.271V58.7C87.1299 57.4373 87.4256 56.4524 88.0168 55.7432C88.608 55.0341 89.429 54.6797 90.4798 54.6797C91.5132 54.6797 92.3281 55.0285 92.9234 55.7244C93.5187 56.4203 93.821 57.3975 93.8302 58.655V60.2271ZM91.9477 58.6867C91.9477 57.858 91.8282 57.2418 91.5898 56.8379C91.3513 56.4341 90.9817 56.2319 90.4798 56.2319C89.982 56.2319 89.6139 56.4264 89.3759 56.816C89.1375 57.205 89.0145 57.7973 89.0058 58.5922V60.2266C89.0058 61.0302 89.1268 61.622 89.3698 62.0028C89.6118 62.3837 89.9866 62.5737 90.4926 62.5737C90.9817 62.5737 91.3452 62.3878 91.5836 62.0156C91.8216 61.6429 91.9426 61.0654 91.9477 60.2827V58.6867Z" fill="white"/>
<path d="M100.954 54.8058H102.829V63.9946H100.954V57.9106L98.2165 63.9946H96.334V54.8058H98.2165V60.8959L100.954 54.8058ZM101.809 52.3827C101.809 52.9423 101.606 53.3946 101.199 53.7393C100.793 54.0844 100.258 54.257 99.595 54.257C98.9267 54.257 98.3895 54.0844 97.9836 53.7393C97.5772 53.3946 97.374 52.9417 97.374 52.3827H98.6954C98.6954 52.6436 98.775 52.8463 98.9348 52.9913C99.0936 53.1363 99.3142 53.2093 99.595 53.2093C99.8712 53.2093 100.088 53.1363 100.245 52.9913C100.403 52.8463 100.482 52.6431 100.482 52.3827H101.809Z" fill="white"/>
<path d="M116.216 60.2271C116.216 61.4596 115.92 62.4169 115.331 63.0985C114.742 63.7796 113.924 64.1212 112.877 64.1212C111.835 64.1212 111.016 63.7832 110.421 63.1082C109.825 62.4327 109.522 61.4872 109.515 60.271V58.7C109.515 57.4373 109.81 56.4524 110.401 55.7432C110.992 55.0341 111.814 54.6797 112.865 54.6797C113.898 54.6797 114.712 55.0285 115.308 55.7244C115.903 56.4203 116.205 57.3975 116.215 58.655V60.2271H116.216ZM114.333 58.6867C114.333 57.858 114.213 57.2418 113.975 56.8379C113.736 56.4341 113.367 56.2319 112.865 56.2319C112.367 56.2319 111.999 56.4264 111.761 56.816C111.522 57.205 111.399 57.7973 111.391 58.5922V60.2266C111.391 61.0302 111.512 61.622 111.755 62.0028C111.997 62.3837 112.371 62.5737 112.877 62.5737C113.367 62.5737 113.73 62.3878 113.969 62.0156C114.207 61.6429 114.327 61.0654 114.333 60.2827V58.6867V58.6867Z" fill="white"/>
<path d="M124.636 56.3519H122.339V63.9946H120.456V56.3519H118.198V54.8058H124.636V56.3519Z" fill="white"/>
<path d="M128.792 60.7637V63.9946H126.917V54.8058H130.081C131.001 54.8058 131.733 55.0882 132.28 55.6519C132.826 56.2155 133.1 56.9472 133.1 57.8478C133.1 58.7485 132.83 59.4592 132.289 59.981C131.749 60.5028 131.001 60.7637 130.043 60.7637H128.792V60.7637ZM128.792 59.2172H130.081C130.439 59.2172 130.715 59.1008 130.911 58.87C131.107 58.6387 131.204 58.3017 131.204 57.8596C131.204 57.4011 131.105 57.0365 130.905 56.7644C130.705 56.4933 130.436 56.3554 130.101 56.3508H128.792V59.2172Z" fill="white"/>
<path d="M139.347 62.1136H136.788L136.291 63.9946H134.306L137.21 54.8058H138.926L141.849 63.9946H139.845L139.347 62.1136ZM137.197 60.5676H138.933L138.065 57.2923L137.197 60.5676Z" fill="white"/>
<path d="M149.995 60.9337C149.948 61.9814 149.651 62.7743 149.102 63.313C148.554 63.8516 147.779 64.1212 146.779 64.1212C145.728 64.1212 144.923 63.7791 144.364 63.095C143.805 62.4123 143.525 61.4361 143.525 60.1699V58.6239C143.525 57.3617 143.814 56.3891 144.393 55.705C144.971 55.0213 145.775 54.6792 146.805 54.6792C147.817 54.6792 148.586 54.959 149.112 55.5186C149.637 56.0787 149.935 56.8823 150.008 57.9295H148.125C148.109 57.2816 148.008 56.8343 147.822 56.5887C147.638 56.3427 147.299 56.2191 146.805 56.2191C146.303 56.2191 145.947 56.3927 145.739 56.7399C145.53 57.0876 145.42 57.6584 145.407 58.4534V60.1888C145.407 61.1017 145.51 61.7287 145.716 62.0692C145.923 62.4103 146.277 62.5808 146.779 62.5808C147.273 62.5808 147.613 62.4623 147.8 62.2244C147.987 61.9865 148.094 61.5561 148.119 60.9337H149.995V60.9337Z" fill="white"/>
<path d="M158.893 54.8058V63.9946H157.01V56.3519H155.287L155.16 59.6088C155.108 60.6815 154.986 61.5321 154.792 62.1611C154.599 62.7896 154.316 63.2522 153.944 63.5463C153.572 63.8409 153.071 63.9905 152.442 63.9946H151.983V62.4547L152.2 62.4358C152.591 62.3898 152.872 62.1361 153.045 61.6756C153.218 61.215 153.324 60.3996 153.367 59.2299L153.488 54.8058H158.893V54.8058Z" fill="white"/>
<path d="M166.209 54.8058H168.085V63.9946H166.209V57.9106L163.472 63.9946H161.589V54.8058H163.472V60.8954L166.209 54.8058Z" fill="white"/>
<path d="M170.695 63.0852C170.695 62.7988 170.791 62.564 170.985 62.3786C171.178 62.1938 171.43 62.1009 171.741 62.1009C172.043 62.1009 172.294 62.1923 172.494 62.3756C172.694 62.5583 172.794 62.7947 172.794 63.0852C172.794 63.3798 172.693 63.6167 172.491 63.7954C172.289 63.9747 172.039 64.0635 171.741 64.0635C171.439 64.0635 171.189 63.9731 170.991 63.7924C170.794 63.6116 170.695 63.3763 170.695 63.0852Z" fill="white"/>
<path d="M3.26676 74.6573H2.45036V78.4054H0.574524V69.2167H2.45036V72.8897H3.08193L4.69585 69.2167H6.98014L4.70861 73.4953L7.23542 78.4054H5.00219L3.26676 74.6573Z" fill="white"/>
<path d="M15.4244 70.7632H13.1274V78.4054H11.2449V70.7632H8.98615V69.2167H15.4244V70.7632Z" fill="white"/>
<path d="M24.1159 74.6379C24.1159 75.8704 23.8208 76.8277 23.2316 77.5088C22.6424 78.1905 21.8244 78.5315 20.7783 78.5315C19.7357 78.5315 18.9172 78.1935 18.3214 77.5186C17.7261 76.8436 17.4243 75.898 17.4156 74.6818V73.1108C17.4156 71.8482 17.7113 70.8628 18.3025 70.1541C18.8937 69.4444 19.7147 69.0901 20.7655 69.0901C21.7989 69.0901 22.6138 69.4388 23.2091 70.1352C23.8049 70.8311 24.1067 71.8083 24.1159 73.0664V74.6379ZM22.2334 73.098C22.2334 72.2694 22.1139 71.6531 21.876 71.2488C21.6376 70.8449 21.2674 70.6427 20.7655 70.6427C20.2677 70.6427 19.9001 70.8377 19.6616 71.2268C19.4232 71.6159 19.3002 72.2086 19.2915 73.0031V74.6379C19.2915 75.441 19.413 76.0328 19.6555 76.4142C19.8975 76.7951 20.2723 76.9855 20.7783 76.9855C21.2674 76.9855 21.6309 76.7997 21.8694 76.4275C22.1073 76.0548 22.2283 75.4768 22.2334 74.6941V73.098V73.098Z" fill="white"/>
<path d="M36.0193 70.7632H32.6884V72.5175H33.7989C34.7388 72.5175 35.4878 72.782 36.0449 73.3099C36.6024 73.8378 36.8812 74.544 36.8812 75.4267C36.8812 76.3065 36.6085 77.0182 36.0643 77.5635C35.5195 78.1077 34.7986 78.3891 33.901 78.4059H30.8059V69.2172H36.0193V70.7632V70.7632ZM32.6884 74.0574V76.8655H33.8244C34.1905 76.8655 34.4784 76.7302 34.6888 76.4586C34.8997 76.1875 35.0048 75.8393 35.0048 75.414C35.0048 75.0147 34.9012 74.6895 34.6954 74.4393C34.4892 74.1891 34.2032 74.0615 33.8372 74.0574H32.6884Z" fill="white"/>
<path d="M41.8878 73.2997L43.1387 69.2167H45.1544L42.6087 76.6005C42.3192 77.3327 42.0083 77.8351 41.6744 78.1088C41.34 78.3819 40.9397 78.5249 40.4715 78.5381H40.2673L39.82 78.5126L39.7883 76.9728C39.8307 76.9891 39.9696 76.9978 40.2034 76.9978C40.4419 76.9978 40.6216 76.9452 40.7426 76.8395C40.8636 76.7348 40.9693 76.4989 41.0581 76.1329L41.148 75.7984L38.4935 69.2162H40.5031L41.8878 73.2997Z" fill="white"/>
<path d="M54.1787 80.6647H52.4556V78.4054H48.0591V80.658H46.2853L46.1832 76.865H46.802C47.0742 76.6174 47.2891 76.2171 47.4464 75.6657C47.6036 75.1148 47.7139 74.3933 47.7782 73.5014L48.0402 69.2162H53.3812V76.8645H54.3442L54.1787 80.6647ZM48.8188 76.8655H51.511V70.7632H49.8266L49.6735 73.2941C49.5668 74.812 49.2819 76.0032 48.8188 76.8655Z" fill="white"/>
<path d="M61.3609 74.4296H58.4379V76.866H61.8965V78.4054H56.5631V69.2167H61.8838V70.7632H58.4379V72.9341H61.3609V74.4296Z" fill="white"/>
<path d="M70.3904 70.7632H68.0934V78.4054H66.2109V70.7632H63.9526V69.2167H70.3904V70.7632Z" fill="white"/>
<path d="M83.1179 75.3445C83.0714 76.3922 82.7738 77.1851 82.2244 77.7238C81.676 78.2624 80.902 78.5315 79.9023 78.5315C78.8516 78.5315 78.0459 78.19 77.4873 77.5058C76.9272 76.8221 76.6479 75.8469 76.6479 74.5807V73.0352C76.6479 71.7726 76.9374 70.8 77.5159 70.1163C78.0939 69.4326 78.8975 69.0901 79.9273 69.0901C80.9398 69.0901 81.7087 69.3704 82.2346 69.9299C82.7595 70.4895 83.0582 71.2932 83.1307 72.3409H81.2482C81.2313 71.6929 81.1308 71.2457 80.9454 70.9996C80.7606 70.754 80.4211 70.6305 79.9273 70.6305C79.426 70.6305 79.0701 70.804 78.8618 71.1512C78.6535 71.4989 78.5432 72.0698 78.5304 72.8642V74.5996C78.5304 75.5125 78.633 76.14 78.8393 76.4806C79.0456 76.8216 79.4004 76.9922 79.9023 76.9922C80.3955 76.9922 80.7356 76.8732 80.9229 76.6358C81.1103 76.3973 81.2165 75.9674 81.2421 75.345H83.1179V75.3445Z" fill="white"/>
<path d="M91.5183 70.7632H89.2212V78.4054H87.3388V70.7632H85.08V69.2167H91.5183V70.7632Z" fill="white"/>
<path d="M95.6621 75.174V78.4054H93.7867V69.2167H96.9507C97.8703 69.2167 98.603 69.4985 99.1493 70.0622C99.6961 70.6259 99.9697 71.358 99.9697 72.2581C99.9697 73.1588 99.6991 73.8695 99.1595 74.3918C98.6188 74.9131 97.8703 75.174 96.913 75.174H95.6621V75.174ZM95.6621 73.628H96.9507C97.3087 73.628 97.5854 73.5121 97.7809 73.2808C97.9765 73.0495 98.0745 72.7131 98.0745 72.2709C98.0745 71.8124 97.9744 71.4474 97.7748 71.1757C97.5747 70.9041 97.3066 70.7663 96.9707 70.7622H95.6621V73.628V73.628Z" fill="white"/>
<path d="M108.937 74.6379C108.937 75.8704 108.642 76.8277 108.053 77.5088C107.464 78.1905 106.646 78.5315 105.6 78.5315C104.557 78.5315 103.738 78.1935 103.143 77.5186C102.547 76.8436 102.245 75.898 102.237 74.6818V73.1108C102.237 71.8482 102.532 70.8628 103.124 70.1541C103.715 69.4444 104.536 69.0901 105.587 69.0901C106.62 69.0901 107.435 69.4388 108.03 70.1352C108.625 70.8311 108.928 71.8083 108.936 73.0664V74.6379H108.937ZM107.054 73.098C107.054 72.2694 106.935 71.6531 106.697 71.2488C106.458 70.8449 106.089 70.6427 105.587 70.6427C105.089 70.6427 104.721 70.8377 104.483 71.2268C104.244 71.6159 104.121 72.2086 104.113 73.0031V74.6379C104.113 75.441 104.234 76.0328 104.477 76.4142C104.719 76.7951 105.093 76.9855 105.599 76.9855C106.088 76.9855 106.452 76.7997 106.69 76.4275C106.928 76.0548 107.049 75.4768 107.054 74.6941V73.098V73.098Z" fill="white"/>
<path d="M116.06 69.2167H117.936V78.4054H116.06V72.3215L113.323 78.4054H111.441V69.2167H113.323V75.3068L116.06 69.2167Z" fill="white"/>
<path d="M126.649 70.7632H124.352V78.4054H122.47V70.7632H120.211V69.2167H126.649V70.7632Z" fill="white"/>
<path d="M130.806 72.517H131.917C132.857 72.517 133.606 72.7815 134.163 73.3094C134.72 73.8373 134.999 74.5435 134.999 75.4262C134.999 76.3059 134.726 77.0177 134.182 77.563C133.637 78.1072 132.916 78.3886 132.019 78.4054H128.923V69.2167H130.806V72.517V72.517ZM130.806 74.0574V76.8655H131.943C132.309 76.8655 132.596 76.7302 132.807 76.4586C133.017 76.1875 133.123 75.8393 133.123 75.414C133.123 75.0147 133.019 74.6895 132.813 74.4393C132.607 74.1891 132.321 74.0615 131.955 74.0574H130.806Z" fill="white"/>
<path d="M143.897 69.2167L145.652 75.8623L147.4 69.2167H149.85V78.4054H147.967V75.9189L148.14 72.0881L146.283 78.4054H145.007L143.15 72.0881L143.322 75.9189V78.4054H141.446V69.2167H143.897Z" fill="white"/>
<path d="M159.06 74.6379C159.06 75.8704 158.764 76.8277 158.175 77.5088C157.587 78.1905 156.768 78.5315 155.722 78.5315C154.679 78.5315 153.86 78.1935 153.265 77.5186C152.669 76.8436 152.367 75.898 152.359 74.6818V73.1108C152.359 71.8482 152.655 70.8628 153.246 70.1541C153.837 69.4444 154.658 69.0901 155.709 69.0901C156.742 69.0901 157.557 69.4388 158.152 70.1352C158.748 70.8311 159.05 71.8083 159.06 73.0664V74.6379H159.06ZM157.177 73.098C157.177 72.2694 157.058 71.6531 156.82 71.2488C156.581 70.8449 156.212 70.6427 155.71 70.6427C155.212 70.6427 154.844 70.8377 154.606 71.2268C154.367 71.6159 154.244 72.2086 154.235 73.0031V74.6379C154.235 75.441 154.356 76.0328 154.599 76.4142C154.842 76.7951 155.216 76.9855 155.722 76.9855C156.211 76.9855 156.575 76.7997 156.813 76.4275C157.051 76.0548 157.172 75.4768 157.177 74.6941V73.098V73.098Z" fill="white"/>
<path d="M167.853 75.3445C167.807 76.3922 167.509 77.1851 166.96 77.7238C166.412 78.2624 165.637 78.5315 164.638 78.5315C163.586 78.5315 162.781 78.19 162.223 77.5058C161.663 76.8221 161.383 75.8469 161.383 74.5807V73.0352C161.383 71.7726 161.673 70.8 162.251 70.1163C162.829 69.4326 163.633 69.0901 164.663 69.0901C165.675 69.0901 166.444 69.3704 166.971 69.9299C167.495 70.4895 167.793 71.2932 167.866 72.3409H165.984C165.967 71.6929 165.866 71.2457 165.681 70.9996C165.496 70.754 165.157 70.6305 164.663 70.6305C164.161 70.6305 163.805 70.804 163.597 71.1512C163.389 71.4989 163.278 72.0698 163.266 72.8642V74.5996C163.266 75.5125 163.369 76.14 163.575 76.4806C163.781 76.8216 164.136 76.9922 164.638 76.9922C165.131 76.9922 165.471 76.8732 165.658 76.6358C165.846 76.3973 165.952 75.9674 165.977 75.345H167.853V75.3445Z" fill="white"/>
<path d="M172.89 74.6573H172.073V78.4054H170.198V69.2167H172.073V72.8897H172.705L174.319 69.2167H176.604L174.332 73.4953L176.859 78.4054H174.625L172.89 74.6573Z" fill="white"/>
<path d="M178.94 78.4054V69.2167H181.812C182.781 69.2167 183.518 69.4301 184.022 69.8575C184.526 70.2843 184.777 70.9102 184.777 71.7348C184.777 72.202 184.673 72.6033 184.465 72.9403C184.257 73.2767 183.972 73.5228 183.61 73.678C184.027 73.796 184.348 74.0329 184.574 74.3888C184.799 74.7441 184.912 75.1827 184.912 75.704C184.912 76.5959 184.665 77.2694 184.169 77.7238C183.673 78.1782 182.955 78.4054 182.015 78.4054H178.94ZM180.815 73.0603H181.792C182.527 73.0603 182.896 72.684 182.896 71.9309C182.896 71.5143 182.811 71.2156 182.641 71.0343C182.47 70.8536 182.193 70.7632 181.812 70.7632H180.815V73.0603V73.0603ZM180.815 74.4102V76.8655H182.016C182.351 76.8655 182.607 76.7624 182.781 76.5566C182.956 76.3509 183.043 76.0578 183.043 75.6795C183.043 74.8549 182.741 74.4322 182.137 74.4107H180.815V74.4102Z" fill="white"/>
<path d="M190.096 73.2997L191.346 69.2167H193.362L190.816 76.6005C190.527 77.3327 190.216 77.8351 189.882 78.1088C189.548 78.3819 189.147 78.5249 188.68 78.5381H188.476L188.029 78.5126L187.997 76.9728C188.039 76.9891 188.177 76.9978 188.412 76.9978C188.65 76.9978 188.829 76.9452 188.951 76.8395C189.072 76.7348 189.178 76.4989 189.267 76.1329L189.356 75.7984L186.702 69.2162H188.712L190.096 73.2997Z" fill="white"/>
<path d="M196.727 75.5779C196.727 74.9892 196.786 74.521 196.903 74.1738C197.019 73.8266 197.23 73.4953 197.531 73.1802C197.85 72.8305 198.063 72.5446 198.169 72.3215C198.275 72.0983 198.329 71.8732 198.329 71.6465C198.329 70.9439 198.099 70.5927 197.64 70.5927C197.436 70.5927 197.266 70.6892 197.129 70.8827C196.992 71.0762 196.92 71.3371 196.912 71.6654H195.106C195.115 70.849 195.346 70.2159 195.799 69.7655C196.252 69.3152 196.865 69.0901 197.639 69.0901C198.431 69.0901 199.045 69.3086 199.483 69.7436C199.921 70.1796 200.14 70.7877 200.14 71.5704C200.14 72.2188 199.87 72.854 199.33 73.4769L198.8 74.0691C198.626 74.2754 198.502 74.4888 198.43 74.7104C198.357 74.931 198.317 75.221 198.309 75.5774H196.727V75.5779ZM196.561 77.5088C196.561 77.2229 196.654 76.9891 196.839 76.8089C197.024 76.6281 197.259 76.5372 197.544 76.5372C197.838 76.5372 198.076 76.6291 198.259 76.8119C198.441 76.9947 198.533 77.227 198.533 77.5088C198.533 77.7866 198.443 78.0179 198.265 78.2032C198.086 78.3881 197.847 78.4805 197.544 78.4805C197.247 78.4805 197.008 78.3881 196.83 78.2032C196.65 78.0184 196.561 77.7866 196.561 77.5088Z" fill="white"/>
</svg>
