<svg width="30" height="38" viewBox="0 0 30 38" fill="none" xmlns="http://www.w3.org/2000/svg">
<path d="M30 15.6667C30 27.3334 15 37.3334 15 37.3334C15 37.3334 0 27.3334 0 15.6667C5.92805e-08 11.6885 1.58035 7.87319 4.3934 5.06015C7.20644 2.2471 11.0218 0.666748 15 0.666748C18.9782 0.666748 22.7936 2.2471 25.6066 5.06015C28.4196 7.87319 30 11.6885 30 15.6667Z" fill="#00325D"/>
<path d="M15 20.6667C17.7614 20.6667 20 18.4282 20 15.6667C20 12.9053 17.7614 10.6667 15 10.6667C12.2386 10.6667 10 12.9053 10 15.6667C10 18.4282 12.2386 20.6667 15 20.6667Z" fill="white"/>
</svg>
