<svg version="1.1" xmlns="http://www.w3.org/2000/svg" xmlns:xlink="http://www.w3.org/1999/xlink">

    <symbol viewBox="0 0 8 12" id="gallery-prev">
        <path d="M6.86368 0.938721L1.88086 5.99995L6.86368 11.0612" stroke-width="2" />
    </symbol>

    <symbol viewBox="0 0 8 12" id="gallery-next">
        <path d="M1.13632 11.0613L6.11914 6.00006L1.13632 0.938832" stroke-width="2" />
    </symbol>

    <symbol viewBox="0 0 11 18" id="pager-prev">
        <path d="M9.27344 1L2.00071 9L9.27344 17" stroke-width="2" />
    </symbol>

    <symbol viewBox="0 0 10 18" id="pager-next">
        <path d="M1.27344 17L8.54617 9L1.27344 1" stroke-width="2" />
    </symbol>

    <symbol viewBox="0 0 24 27" id="file-icon">
        <path fill-rule="evenodd" clip-rule="evenodd" d="M4 0C1.79086 0 0 1.81325 0 4.05V22.95C0 25.1868 1.79086 27 4 27H20C22.2091 27 24 25.1868 24 22.95V9.45C24 4.23091 19.8213 0 14.6667 0H4ZM4 2.7H13.3333V9.45H21.3333V22.95C21.3333 23.6956 20.7364 24.3 20 24.3H4C3.26362 24.3 2.66667 23.6956 2.66667 22.95V4.05C2.66667 3.30442 3.26362 2.7 4 2.7ZM16 2.83502C18.1484 3.27659 19.9217 4.76422 20.7786 6.75H16V2.83502Z" />
    </symbol>

    <symbol viewBox="0 0 40 40" id="icon-fb">
        <path d="M40 20.1218C40 9.00766 31.0469 0 20 0C8.95312 0 0 9.00766 0 20.1218C0 30.167 7.3125 38.4909 16.875 40V25.9383H11.7969V20.1218H16.875V15.6887C16.875 10.6465 19.8594 7.86009 24.4297 7.86009C26.6172 7.86009 28.9062 8.25309 28.9062 8.25309V13.205H26.3828C23.8984 13.205 23.125 14.7573 23.125 16.349V20.1218H28.6719L27.7852 25.9383H23.125V40C32.6875 38.4909 40 30.167 40 20.1218Z" />
    </symbol>

    <symbol viewBox="0 0 40 40" id="icon-youtube">
        <path fill-rule="evenodd" clip-rule="evenodd" d="M20 0C8.9543 0 0 8.9543 0 20C0 31.0457 8.9543 40 20 40C31.0457 40 40 31.0457 40 20C40 8.9543 31.0457 0 20 0ZM28.3347 13.1246C29.2526 13.3765 29.9755 14.1187 30.2209 15.0612C30.6667 16.7694 30.6667 20.3335 30.6667 20.3335C30.6667 20.3335 30.6667 23.8975 30.2209 25.6058C29.9755 26.5483 29.2526 27.2905 28.3347 27.5425C26.6712 28.0002 20 28.0002 20 28.0002C20 28.0002 13.3289 28.0002 11.6652 27.5425C10.7473 27.2905 10.0244 26.5483 9.77904 25.6058C9.33334 23.8975 9.33334 20.3335 9.33334 20.3335C9.33334 20.3335 9.33334 16.7694 9.77904 15.0612C10.0244 14.1187 10.7473 13.3765 11.6652 13.1246C13.3289 12.6668 20 12.6668 20 12.6668C20 12.6668 26.6712 12.6668 28.3347 13.1246Z" />
        <path d="M18 23.9997V17.333L23.3333 20.6665L18 23.9997Z" />
    </symbol>

    <symbol viewBox="0 0 40 40" id="icon-twitter">
        <path fill-rule="evenodd" clip-rule="evenodd" d="M20 0C8.9543 0 0 8.9543 0 20C0 31.0457 8.9543 40 20 40C31.0457 40 40 31.0457 40 20C40 8.9543 31.0457 0 20 0ZM19.443 16.9482L19.401 16.2562C19.2751 14.4625 20.3803 12.8242 22.129 12.1886C22.7725 11.9627 23.8637 11.9344 24.5771 12.1321C24.8569 12.2169 25.3885 12.4994 25.7663 12.7536L26.4518 13.2196L27.2072 12.9795C27.6269 12.8524 28.1865 12.6406 28.4383 12.4994C28.6761 12.3722 28.8859 12.3016 28.8859 12.344C28.8859 12.5841 28.3683 13.4032 27.9346 13.8552C27.3471 14.4907 27.515 14.5472 28.7041 14.1235C29.4175 13.8834 29.4315 13.8834 29.2916 14.1518C29.2077 14.293 28.774 14.7873 28.3124 15.2393C27.529 16.0161 27.487 16.1008 27.487 16.7505C27.487 17.7532 27.0113 19.8435 26.5357 20.9875C25.6543 23.1343 23.7658 25.3516 21.8772 26.4674C19.2191 28.0351 15.6798 28.4305 12.7 27.5125C11.7067 27.2018 10 26.4109 10 26.2696C10 26.2273 10.5176 26.1708 11.1471 26.1567C12.4622 26.1284 13.7772 25.7612 14.8964 25.1115L15.6518 24.6596L14.7844 24.363C13.5534 23.9393 12.4482 22.9648 12.1684 22.0468C12.0844 21.7502 12.1124 21.736 12.8958 21.736L13.7072 21.7219L13.0218 21.3971C12.2104 20.9875 11.4689 20.2955 11.1052 19.5893C10.8394 19.0808 10.5036 17.7956 10.6016 17.6968C10.6295 17.6544 10.9233 17.7391 11.2591 17.8521C12.2243 18.2052 12.3503 18.1205 11.7907 17.5273C10.7414 16.4539 10.4197 14.858 10.9233 13.3468L11.1611 12.6688L12.0844 13.5869C13.973 15.437 16.1974 16.5386 18.7435 16.8635L19.443 16.9482Z" />
    </symbol>

    <symbol viewBox="0 0 10 17" id="btn-submit">
        <path fill-rule="evenodd" clip-rule="evenodd" d="M9.20211 8.25771L3.58417 0.000364672L0.000966072 -4.02751e-07L5.63161 8.27634L0.000965349 16.5341L3.58417 16.5337L9.20207 8.27642L9.21484 8.27642L9.20846 8.26703L9.21484 8.25765L9.20211 8.25771Z" />
    </symbol>

    <symbol viewBox="0 0 24 24" id="header-user">
        <path d="M20 21V19C20 17.9391 19.5786 16.9217 18.8284 16.1716C18.0783 15.4214 17.0609 15 16 15H8C6.93913 15 5.92172 15.4214 5.17157 16.1716C4.42143 16.9217 4 17.9391 4 19V21" stroke-width="2" stroke-linecap="round" stroke-linejoin="round" />
        <path d="M12 11C14.2091 11 16 9.20914 16 7C16 4.79086 14.2091 3 12 3C9.79086 3 8 4.79086 8 7C8 9.20914 9.79086 11 12 11Z" stroke-width="2" stroke-linecap="round" stroke-linejoin="round" />
    </symbol>

    <symbol viewBox="0 0 18 18" id="nav-arrow">
        <path d="M4.5 8.75L9 13.25L13.5 8.75" stroke-width="1.5" stroke-linecap="round" stroke-linejoin="round" />
    </symbol>

    <symbol viewBox="0 0 15 15" id="programm-item-arrow">
        <path d="M14.6137 2.00001C14.6137 1.28204 14.0317 0.700013 13.3137 0.700012L1.61371 0.700013C0.895739 0.700012 0.313709 1.28204 0.313709 2.00001C0.313709 2.71798 0.895739 3.30001 1.61371 3.30001H12.0137V13.7C12.0137 14.418 12.5957 15 13.3137 15C14.0317 15 14.6137 14.418 14.6137 13.7L14.6137 2.00001ZM2.91924 14.233L14.2329 2.91925L12.3945 1.08077L1.08076 12.3945L2.91924 14.233Z" />
    </symbol>

    <symbol viewBox="0 0 24 24" id="welcome-date">
        <path d="M19 4H5C3.89543 4 3 4.89543 3 6V20C3 21.1046 3.89543 22 5 22H19C20.1046 22 21 21.1046 21 20V6C21 4.89543 20.1046 4 19 4Z" stroke-width="2" stroke-linecap="round" stroke-linejoin="round" />
        <path d="M16 2V6" stroke-width="2" stroke-linecap="round" stroke-linejoin="round" />
        <path d="M8 2V6" stroke-width="2" stroke-linecap="round" stroke-linejoin="round" />
        <path d="M3 10H21" stroke-width="2" stroke-linecap="round" stroke-linejoin="round" />
    </symbol>

    <symbol viewBox="0 0 24 24" id="welcome-time">
        <path d="M12 22C17.5228 22 22 17.5228 22 12C22 6.47715 17.5228 2 12 2C6.47715 2 2 6.47715 2 12C2 17.5228 6.47715 22 12 22Z" stroke-width="2" stroke-linecap="round" stroke-linejoin="round" />
        <path d="M12 6V12L16 14" stroke-width="2" stroke-linecap="round" stroke-linejoin="round" />
    </symbol>

    <symbol viewBox="0 0 34 17" id="welcome-ctrl-link">
        <path fill-rule="evenodd" clip-rule="evenodd" d="M21.5947 8.49065L15.9767 0.233305L12.3935 0.23294L18.0242 8.50928L12.3935 16.767L15.9767 16.7666L21.5946 8.50936L21.6074 8.50936L21.601 8.49998L21.6074 8.49059L21.5947 8.49065Z" />
        <path fill-rule="evenodd" clip-rule="evenodd" d="M9.70016 8.49065L4.08221 0.233305L0.499013 0.23294L6.12966 8.50928L0.499012 16.767L4.08222 16.7666L9.70011 8.50936L9.71289 8.50936L9.7065 8.49998L9.71289 8.49059L9.70016 8.49065Z" />
        <path fill-rule="evenodd" clip-rule="evenodd" d="M33.4872 8.50939L27.8693 16.7667L24.2861 16.767L29.9168 8.50931L24.2861 0.232971L27.8693 0.233336L33.4873 8.49068L33.5 8.49062L33.4936 8.50001L33.5 8.50939L33.4872 8.50939Z" />
    </symbol>

    <symbol viewBox="0 0 53 62" id="main-stream-play">
        <path d="M53 31L0.499997 61.3109L0.5 0.689109L53 31Z" />
    </symbol>

    <symbol viewBox="0 0 18 18" id="main-map-window-coords">
        <path d="M15 6.75H8.25C7.42157 6.75 6.75 7.42157 6.75 8.25V15C6.75 15.8284 7.42157 16.5 8.25 16.5H15C15.8284 16.5 16.5 15.8284 16.5 15V8.25C16.5 7.42157 15.8284 6.75 15 6.75Z" stroke-width="2" stroke-linecap="round" stroke-linejoin="round" />
        <path d="M3.75 11.25H3C2.60218 11.25 2.22064 11.092 1.93934 10.8107C1.65804 10.5294 1.5 10.1478 1.5 9.75V3C1.5 2.60218 1.65804 2.22064 1.93934 1.93934C2.22064 1.65804 2.60218 1.5 3 1.5H9.75C10.1478 1.5 10.5294 1.65804 10.8107 1.93934C11.092 2.22064 11.25 2.60218 11.25 3V3.75" stroke-width="2" stroke-linecap="round" stroke-linejoin="round" />
    </symbol>

    <symbol viewBox="0 0 24 24" id="form-input-clear">
        <path d="M15 9L9 15" stroke-width="2" stroke-linecap="round" stroke-linejoin="round" />
        <path d="M9 9L15 15" stroke-width="2" stroke-linecap="round" stroke-linejoin="round" />
    </symbol>

    <symbol viewBox="0 0 24 24" id="form-input-search">
        <path d="M11 19C15.4183 19 19 15.4183 19 11C19 6.58172 15.4183 3 11 3C6.58172 3 3 6.58172 3 11C3 15.4183 6.58172 19 11 19Z" stroke-width="2" stroke-linecap="round" stroke-linejoin="round" />
        <path d="M21.0004 21L16.6504 16.65" stroke-width="2" stroke-linecap="round" stroke-linejoin="round" />
    </symbol>

    <symbol viewBox="0 0 22 40" id="back-link">
        <path fill-rule="evenodd" clip-rule="evenodd" d="M0.0304336 19.682L13.4203 0.00132311L21.9606 0.000452989L8.54036 19.6822L21.9606 39.4082L13.4203 39.4073L0.0303292 19.7265L-8.60306e-07 19.7267L0.0152178 19.7043L1.94761e-06 19.682L0.0304336 19.682Z" />
    </symbol>

    <symbol viewBox="0 0 18 18" id="window-close">
        <path d="M16 2L2 16" stroke-width="3" stroke-linecap="round" stroke-linejoin="round" />
        <path d="M2 2L16 16" stroke-width="3" stroke-linecap="round" stroke-linejoin="round" />
    </symbol>

    <symbol viewBox="0 0 18 18" id="main-stream-speakers-prev">
        <path fill-rule="evenodd" clip-rule="evenodd" d="M12.0002 2.25006C11.8082 2.25006 11.6162 2.32356 11.4699 2.46981L5.46994 8.46981C5.17669 8.76306 5.17669 9.23706 5.46994 9.53031L11.4699 15.5303C11.7632 15.8236 12.2372 15.8236 12.5304 15.5303C12.8237 15.2371 12.8237 14.7631 12.5304 14.4698L7.06069 9.00006L12.5304 3.53031C12.8237 3.23706 12.8237 2.76306 12.5304 2.46981C12.3842 2.32356 12.1922 2.25006 12.0002 2.25006Z" />
    </symbol>

    <symbol viewBox="0 0 18 18" id="main-stream-speakers-next">
        <path fill-rule="evenodd" clip-rule="evenodd" d="M5.99981 15.7499C6.19181 15.7499 6.38381 15.6764 6.53006 15.5302L12.5301 9.53019C12.8233 9.23694 12.8233 8.76294 12.5301 8.46969L6.53006 2.46969C6.23681 2.17644 5.76281 2.17644 5.46956 2.46969C5.17631 2.76294 5.17631 3.23694 5.46956 3.53019L10.9393 8.99994L5.46956 14.4697C5.17631 14.7629 5.17631 15.2369 5.46956 15.5302C5.61581 15.6764 5.80781 15.7499 5.99981 15.7499Z" />
    </symbol>

    <symbol viewBox="0 0 20 20" id="up-link">
        <path d="M15 12.5L10 7.5L5 12.5" stroke-width="2" stroke-linecap="round" stroke-linejoin="round" />
    </symbol>

</svg>